<svg xmlns="http://www.w3.org/2000/svg" width="1056" height="993" viewBox="0 0 1056 993">
<g>
<path d="M 528.00 0.00 L 1056.00 0.00 L 1056.00 993.00 L 0.00 993.00 L 31.75 992.96 C61.31,992.92 63.29,992.81 60.50,991.34 C52.75,987.25 50.00,982.34 50.00,972.58 C50.00,964.62 53.52,952.95 59.61,940.69 C65.67,928.48 69.47,923.29 74.81,919.91 C86.42,912.54 101.93,920.27 101.98,933.45 L 102.00 937.41 L 105.75 933.82 C110.98,928.83 112.99,928.00 119.97,928.00 C127.15,928.00 132.23,929.89 136.87,934.30 C146.09,943.04 146.27,955.58 137.45,973.09 C132.19,983.55 126.59,989.00 121.11,989.00 C120.01,989.00 106.03,982.47 90.03,974.50 C74.04,966.53 60.04,960.00 58.92,960.00 C53.71,960.00 51.78,976.87 56.45,981.55 C60.89,985.98 66.79,983.73 65.33,978.16 C64.00,973.08 70.32,971.23 74.55,975.45 C78.81,979.72 77.04,988.29 71.24,991.43 C71.19,991.46 71.16,991.49 71.16,991.51 C71.19,992.76 133.61,992.93 562.25,992.96 L 1056.00 993.00 L 1055.87 501.75 C1055.78,119.70 1055.59,27.85 1054.69,27.84 C1054.61,27.84 1054.52,28.61 1054.43,30.00 C1043.92,185.19 1017.50,313.11 972.38,427.34 C965.23,445.44 952.93,473.32 951.74,474.11 C951.24,474.45 950.91,475.12 951.01,475.61 C951.28,476.90 937.70,504.00 936.79,504.00 C936.36,504.00 937.57,500.74 939.48,496.75 C950.78,473.06 954.76,464.19 955.52,461.00 C955.72,460.17 957.51,455.67 959.52,451.00 C961.52,446.33 964.09,439.80 965.22,436.50 C966.36,433.20 967.73,429.38 968.27,428.00 C973.31,415.20 990.03,365.10 994.30,350.00 C1000.81,327.01 1007.39,301.26 1010.66,286.00 C1012.60,276.92 1015.30,264.33 1016.65,258.00 C1019.00,247.00 1021.78,231.96 1024.04,218.00 C1024.61,214.43 1025.97,206.32 1027.05,200.00 C1028.13,193.68 1029.71,183.13 1030.56,176.57 C1031.41,170.01 1032.32,164.30 1032.57,163.89 C1032.83,163.47 1033.47,158.72 1034.00,153.32 C1034.54,147.92 1035.45,139.90 1036.03,135.50 C1036.60,131.10 1037.25,126.15 1037.46,124.50 C1037.67,122.85 1038.34,115.65 1038.96,108.50 C1039.58,101.35 1040.72,89.43 1041.49,82.00 C1044.25,55.60 1045.47,31.41 1044.08,30.55 C1043.58,30.24 1042.22,31.23 1041.05,32.74 C1039.89,34.26 1040.56,32.58 1042.54,29.00 C1046.81,21.29 1054.00,6.18 1054.00,4.90 C1054.00,4.41 1054.45,4.00 1055.00,4.00 C1055.55,4.00 1056.00,3.10 1056.00,2.00 C1056.00,0.00 1055.33,0.00 528.00,0.00 ZM 406.63 891.19 C396.36,896.44 377.33,893.06 368.74,884.46 C365.55,881.27 365.28,878.96 367.83,876.65 C370.58,874.16 372.88,874.60 373.55,877.75 C374.70,883.12 376.05,885.12 379.47,886.55 C387.46,889.89 395.30,887.52 400.31,880.25 C402.72,876.75 405.40,870.93 404.78,870.56 C404.63,870.47 401.94,869.62 398.82,868.67 C391.48,866.44 382.03,860.10 378.55,855.07 C374.43,849.12 373.09,844.35 373.06,835.50 C373.04,826.34 375.70,817.42 381.19,808.29 C392.22,789.93 414.55,783.19 433.68,792.45 C447.28,799.03 451.73,808.47 444.60,815.60 C440.85,819.35 438.58,819.79 435.22,817.44 C432.69,815.67 432.39,812.33 434.12,805.45 C435.06,801.72 434.97,800.61 433.59,798.50 C432.17,796.33 431.22,796.00 426.44,796.00 C419.07,796.00 412.82,799.26 405.91,806.73 C397.11,816.23 391.08,830.30 390.24,843.23 C389.66,852.29 390.75,855.70 395.61,859.96 C398.62,862.61 406.54,865.95 407.32,864.91 C407.67,864.45 413.13,851.27 416.10,843.75 L 418.01 838.89 L 413.60 836.94 C410.07,835.38 409.29,834.59 409.71,833.00 C410.00,831.90 410.79,831.00 411.47,831.00 C412.86,831.00 440.09,841.89 441.22,842.89 C441.61,843.25 441.68,844.52 441.36,845.74 C440.81,847.85 440.65,847.88 437.21,846.45 C435.25,845.63 433.33,845.30 432.94,845.73 C432.55,846.15 429.20,854.04 425.49,863.26 C418.13,881.53 414.23,887.31 406.63,891.19 ZM 265.32 853.93 C259.59,855.52 251.99,855.18 247.50,853.13 C243.22,851.18 237.10,845.03 234.55,840.10 C231.85,834.88 229.78,823.92 230.46,818.46 C231.91,806.85 240.86,797.80 251.09,797.60 C253.79,797.54 255.99,797.13 255.99,796.68 C256.01,795.08 250.10,787.33 246.15,783.75 C238.69,777.01 229.38,776.53 223.33,782.58 C220.93,784.98 219.00,785.71 219.00,784.23 C219.00,781.62 224.60,775.85 229.45,773.48 C234.35,771.08 235.85,770.83 243.31,771.15 C251.02,771.47 252.12,771.79 257.30,775.24 C274.95,786.95 287.62,825.28 279.24,841.57 C276.48,846.92 270.09,852.60 265.32,853.93 ZM 502.56 955.45 C498.08,959.03 495.43,955.25 499.47,951.03 C502.14,948.24 502.86,945.56 500.75,946.24 C500.06,946.46 498.60,948.05 497.50,949.78 C495.32,953.20 494.00,953.85 494.00,951.50 C494.00,949.45 493.04,949.62 490.34,952.15 C488.63,953.76 487.73,954.02 486.74,953.20 C484.89,951.66 479.00,950.74 479.00,951.99 C479.00,952.54 478.63,953.00 478.17,953.00 C477.72,953.00 477.55,951.54 477.80,949.75 L 478.26 946.50 L 475.69 948.86 C473.51,950.88 472.50,951.12 468.82,950.55 C466.44,950.19 461.69,949.80 458.25,949.69 C454.81,949.59 452.00,949.16 452.00,948.75 C452.00,948.34 452.90,948.00 454.00,948.00 C455.10,948.00 456.00,947.55 456.00,947.00 C456.00,945.48 453.15,945.80 449.99,947.67 C447.34,949.23 446.99,949.23 444.55,947.62 C442.97,946.59 442.22,945.43 442.66,944.71 C443.20,943.80 443.03,943.77 441.94,944.61 C439.31,946.63 435.74,946.92 432.73,945.36 C430.88,944.40 429.42,944.18 428.83,944.77 C428.29,945.31 426.11,945.39 423.70,944.94 C420.85,944.42 419.27,944.55 418.77,945.34 C418.24,946.17 418.03,946.11 418.02,945.14 C418.01,944.38 417.37,944.03 416.56,944.34 C415.78,944.64 414.98,944.44 414.80,943.89 C414.62,943.35 412.22,942.53 409.48,942.07 C406.74,941.61 405.06,941.18 405.75,941.12 C406.44,941.05 407.00,940.58 407.00,940.07 C407.00,939.11 404.88,938.94 394.25,939.05 C389.05,939.10 388.00,938.83 388.00,937.44 C388.00,936.26 387.41,935.92 386.00,936.29 C384.90,936.58 384.00,936.43 384.00,935.97 C384.00,935.51 382.74,935.17 381.21,935.21 C379.67,935.26 377.45,934.78 376.27,934.15 C375.10,933.52 372.47,933.00 370.43,933.00 C367.94,933.00 366.15,932.33 364.94,930.93 C363.95,929.78 362.32,928.94 361.32,929.06 C358.35,929.39 352.86,927.81 352.35,926.48 C352.01,925.60 350.85,925.47 348.32,926.04 C344.35,926.94 342.10,926.38 340.27,924.06 C339.26,922.78 338.88,922.74 338.15,923.84 C337.41,924.97 336.88,924.97 334.88,923.84 C333.57,923.10 332.20,922.08 331.82,921.56 C331.41,920.98 329.78,921.04 327.58,921.71 C324.51,922.66 323.67,922.53 321.44,920.77 C319.52,919.27 318.57,919.03 317.73,919.87 C316.89,920.71 316.97,921.02 318.05,921.09 C318.85,921.13 318.15,921.58 316.50,922.08 C314.21,922.77 313.24,922.63 312.38,921.47 C311.31,920.04 308.00,920.39 308.00,921.94 C308.00,922.33 305.65,922.71 302.77,922.78 C299.89,922.84 297.39,923.34 297.20,923.89 C297.02,924.44 294.54,925.64 291.69,926.57 C288.83,927.50 285.99,928.66 285.38,929.15 C284.76,929.64 283.52,929.75 282.63,929.41 C281.73,929.07 281.00,929.28 281.00,929.89 C281.00,930.50 280.10,931.00 279.00,931.00 C277.90,931.00 276.12,931.88 275.05,932.95 C273.98,934.02 271.62,935.65 269.80,936.57 C267.99,937.48 264.77,940.01 262.65,942.19 C260.30,944.60 258.22,945.91 257.32,945.57 C256.50,945.26 254.97,945.00 253.92,945.00 C251.52,945.00 251.44,942.56 253.75,940.25 C254.71,939.29 255.50,937.99 255.50,937.37 C255.50,935.81 269.58,925.18 274.75,922.83 C277.09,921.77 279.00,920.43 279.00,919.85 C279.00,919.26 279.65,919.03 280.44,919.34 C281.22,919.64 282.03,919.42 282.21,918.86 C282.52,917.95 284.86,917.30 295.00,915.33 C297.57,914.83 299.01,914.75 302.50,914.93 C308.46,915.22 321.90,913.65 321.33,912.72 C320.90,912.04 321.84,911.94 324.09,912.43 C325.97,912.84 330.42,913.28 334.00,913.42 C342.14,913.74 355.32,917.73 354.58,919.65 C354.30,920.39 354.51,921.00 355.06,921.00 C355.61,921.00 356.32,920.34 356.62,919.54 C356.93,918.73 358.00,917.82 359.01,917.50 C360.94,916.89 372.08,920.24 375.57,922.48 C376.71,923.21 380.22,924.13 383.37,924.53 C386.52,924.92 389.72,925.86 390.48,926.62 C391.24,927.38 392.94,928.00 394.26,928.00 C395.58,928.00 396.95,928.29 397.31,928.64 C398.02,929.35 404.05,929.95 411.25,930.02 C413.86,930.04 416.00,930.53 416.00,931.09 C416.00,931.66 416.42,931.86 416.93,931.54 C417.44,931.23 418.15,931.90 418.51,933.04 C419.18,935.15 423.48,937.44 425.00,936.50 C425.46,936.22 427.11,936.49 428.67,937.11 C430.22,937.73 434.09,938.16 437.25,938.06 C440.71,937.96 443.00,938.31 443.00,938.95 C443.00,940.62 445.81,940.17 446.84,938.32 C447.71,936.77 448.10,936.76 452.14,938.23 C454.54,939.11 458.98,940.37 462.00,941.04 C465.02,941.70 468.73,942.69 470.23,943.24 C471.73,943.78 474.09,943.94 475.48,943.59 C476.87,943.25 478.00,943.32 478.00,943.77 C478.00,944.21 479.69,944.42 481.75,944.24 C483.81,944.06 486.70,943.82 488.17,943.71 C489.63,943.59 491.14,943.19 491.52,942.81 C491.90,942.44 493.39,942.58 494.84,943.13 C496.29,943.68 498.90,943.87 500.64,943.54 C502.37,943.21 504.96,943.48 506.39,944.13 C508.52,945.10 509.70,944.99 513.07,943.47 C516.68,941.84 517.95,941.76 523.77,942.75 C527.41,943.38 534.79,943.74 540.19,943.56 C545.59,943.38 550.00,943.63 550.00,944.12 C550.00,944.60 551.12,945.00 552.50,945.00 C553.88,945.00 555.00,944.55 555.00,944.00 C555.00,943.45 557.14,943.02 559.75,943.04 C564.12,943.07 564.32,943.17 562.22,944.34 C560.96,945.03 560.29,945.95 560.72,946.38 C561.15,946.81 560.25,946.85 558.73,946.47 C555.59,945.68 552.82,947.37 553.67,949.57 C554.08,950.65 553.32,951.00 550.59,951.00 C547.22,951.00 547.01,950.82 547.59,948.50 C548.11,946.44 547.85,946.00 546.17,946.00 C545.04,946.00 543.82,946.49 543.45,947.08 C543.08,947.68 541.70,947.89 540.37,947.56 C538.62,947.12 537.30,947.61 535.55,949.36 C533.36,951.55 532.71,951.69 528.32,950.87 C524.49,950.15 523.28,950.26 522.44,951.42 C521.85,952.21 520.13,953.18 518.60,953.56 C516.22,954.16 515.88,953.98 516.17,952.28 C516.52,950.21 514.45,947.00 512.78,947.00 C512.23,947.00 511.96,948.99 512.16,951.50 C512.49,955.69 511.84,957.18 510.58,955.13 C510.29,954.66 508.91,954.49 507.52,954.75 C505.67,955.11 505.00,954.81 505.00,953.62 C505.00,951.89 504.12,951.63 501.58,952.61 C499.13,953.55 499.72,955.21 502.25,954.52 C504.44,953.91 504.45,953.94 502.56,955.45 ZM 159.57 928.53 C153.75,930.26 152.03,930.28 145.88,928.62 C136.68,926.14 127.37,918.51 122.83,909.72 C119.79,903.84 119.75,894.04 122.74,888.37 C125.49,883.15 130.13,878.48 135.08,875.96 C140.28,873.31 150.90,873.32 156.77,875.98 C162.82,878.73 171.86,887.60 174.63,893.50 C181.18,907.45 173.97,924.23 159.57,928.53 ZM 499.80 888.60 C498.32,889.37 495.16,889.99 492.80,889.97 C485.96,889.92 482.00,886.92 482.00,881.80 L 482.00 878.97 L 477.75 881.66 C467.90,887.88 459.63,887.92 454.46,881.77 C451.93,878.76 451.80,878.12 452.27,871.04 C452.55,866.89 453.58,857.40 454.57,849.95 C456.56,834.98 456.28,832.25 452.93,834.04 C449.64,835.80 449.20,834.09 452.26,831.45 C456.51,827.80 462.16,826.43 467.00,827.88 C474.29,830.07 474.47,831.05 471.55,853.19 C470.15,863.85 469.00,873.58 469.00,874.81 C469.00,878.17 472.94,879.62 476.61,877.62 C482.82,874.23 482.78,874.34 485.13,856.15 C487.49,837.84 487.26,835.72 483.11,837.94 C480.10,839.55 480.46,837.57 483.64,835.07 C487.86,831.75 492.91,830.63 497.78,831.94 C505.05,833.90 505.21,835.01 501.90,860.37 C500.32,872.40 499.29,882.67 499.61,883.18 C499.93,883.70 501.61,883.81 503.35,883.43 L 506.50 882.75 L 504.50 884.98 C503.40,886.20 501.29,887.83 499.80,888.60 ZM 553.44 897.58 C548.26,899.76 545.26,900.24 544.51,899.01 C544.12,898.38 543.96,897.76 544.15,897.63 C544.34,897.50 545.70,896.65 547.16,895.74 C550.72,893.51 552.81,886.79 553.59,875.00 C554.33,863.78 552.72,847.75 550.51,844.38 C548.24,840.91 543.86,841.19 540.64,845.02 L 538.09 848.04 L 538.70 868.27 L 538.72 868.99 C539.17,884.00 539.30,888.58 537.15,890.33 C536.17,891.12 534.72,891.33 532.61,891.68 C528.46,892.35 523.28,890.52 522.59,888.14 C522.33,887.24 521.81,876.38 521.44,864.00 C521.04,850.80 520.32,840.96 519.70,840.19 C519.07,839.39 517.69,839.11 516.23,839.48 C512.59,840.39 513.91,838.00 518.30,835.72 C522.62,833.48 528.79,832.48 532.50,833.41 C534.29,833.86 535.69,835.33 536.89,838.01 L 538.66 841.95 L 542.01 838.49 C546.37,834.00 552.72,831.54 557.61,832.45 C565.52,833.94 569.48,841.86 570.59,858.40 C571.88,877.77 565.41,892.57 553.44,897.58 ZM 604.90 885.55 C601.85,887.13 594.75,887.38 591.39,886.02 C586.37,883.99 582.26,874.77 583.48,868.28 C584.35,863.62 590.04,857.63 597.64,853.39 C605.14,849.19 608.00,845.91 608.00,841.50 C608.00,836.47 604.68,833.00 599.86,833.00 C595.82,833.00 592.11,834.39 590.77,836.40 C589.54,838.24 589.88,838.76 593.00,839.85 C595.40,840.69 596.00,841.47 596.00,843.79 C596.00,849.70 589.81,851.90 585.45,847.55 C579.09,841.18 584.92,831.87 597.37,828.50 C608.96,825.36 619.25,827.83 623.27,834.72 C624.43,836.70 626.11,844.50 627.85,855.90 C629.36,865.82 630.93,874.27 631.34,874.68 C631.75,875.09 632.96,874.88 634.03,874.21 C638.14,871.65 638.08,873.70 633.91,878.45 C629.74,883.20 624.42,884.64 619.57,882.33 C617.61,881.40 615.99,880.38 615.98,880.06 C615.98,879.75 615.57,878.87 615.08,878.10 C614.39,877.01 613.50,877.50 610.95,880.40 C609.16,882.44 606.44,884.75 604.90,885.55 ZM 324.65 846.51 C318.13,848.45 314.70,848.35 308.02,846.04 C285.71,838.34 285.31,803.31 307.41,792.50 C317.61,787.51 329.47,788.21 334.43,794.10 C340.32,801.10 336.94,805.98 319.71,815.29 C312.26,819.31 309.00,821.62 309.00,822.86 C309.00,823.84 310.24,827.08 311.75,830.07 C316.56,839.56 326.57,842.82 334.48,837.45 C336.54,836.05 338.46,835.13 338.74,835.41 C340.80,837.46 332.14,844.29 324.65,846.51 ZM 200.47 889.90 C198.23,891.86 195.85,893.00 193.99,893.00 C190.96,893.00 190.38,892.38 167.06,864.00 C160.24,855.69 159.17,855.07 156.80,858.00 C154.33,861.05 153.53,859.96 154.99,855.54 C156.57,850.75 160.66,846.04 164.70,844.35 C167.60,843.14 168.46,843.18 171.75,844.68 C173.81,845.62 175.73,846.53 176.00,846.69 C176.27,846.85 176.60,844.51 176.72,841.50 C177.00,834.70 179.18,830.24 182.67,829.37 C185.88,828.56 187.80,829.66 190.75,833.99 C193.75,838.40 193.61,839.00 189.57,839.00 C185.51,839.00 182.58,842.13 180.94,848.21 C180.65,849.28 180.38,850.03 180.35,850.78 C180.24,853.02 182.19,855.37 191.84,866.96 C192.63,867.91 193.48,868.92 194.37,870.00 C205.38,883.24 205.95,885.08 200.47,889.90 ZM 97.50 957.20 C114.55,965.84 128.98,972.92 129.58,972.95 C131.25,973.03 134.78,968.79 135.52,965.80 C136.53,961.73 134.45,956.86 129.74,952.24 C124.50,947.11 119.60,945.00 112.93,945.00 C106.83,945.00 101.61,947.25 98.76,951.11 C96.03,954.80 94.75,953.83 95.53,948.66 C96.32,943.34 93.46,938.79 86.64,934.58 C82.87,932.25 80.62,931.59 76.33,931.55 C71.48,931.51 70.54,931.84 68.36,934.37 C63.56,939.95 63.77,940.12 97.50,957.20 ZM 157.24 917.02 C159.58,918.09 162.25,918.97 163.18,918.98 C164.96,919.00 169.00,914.53 169.00,912.54 C169.00,907.98 152.73,892.09 142.79,886.93 C136.54,883.68 129.00,885.20 129.00,889.69 C129.00,895.85 145.25,911.58 157.24,917.02 ZM 258.60 846.90 C261.84,849.45 262.20,849.47 264.99,847.21 C268.21,844.60 268.61,838.21 266.18,827.99 C262.04,810.60 257.89,803.00 252.55,803.00 C245.62,803.00 244.17,811.45 248.51,826.45 C251.59,837.07 255.07,844.12 258.60,846.90 ZM 937.44 143.87 C935.79,145.20 931.37,147.37 932.50,146.28 C933.05,145.76 936.42,143.14 940.00,140.48 C975.23,114.23 1010.24,78.04 1032.04,45.35 C1038.01,36.39 1040.41,33.61 1037.07,39.50 C1022.41,65.40 1009.51,81.95 986.11,104.88 C974.64,116.12 955.83,132.00 953.98,132.00 C953.23,132.00 943.18,139.20 937.44,143.87 ZM 603.29 877.20 C607.38,879.80 612.00,875.68 612.00,869.45 C612.00,864.19 610.26,854.86 609.06,853.66 C607.41,852.01 602.97,853.99 600.97,857.28 C599.83,859.15 599.01,862.29 599.00,864.78 C599.00,869.33 601.27,875.92 603.29,877.20 ZM 113.60 882.28 C112.35,894.35 111.36,894.18 108.08,881.30 C104.39,866.88 105.07,866.00 119.83,866.00 C128.04,866.00 130.00,866.28 130.00,867.45 C130.00,868.39 127.27,869.72 122.25,871.23 L 114.50 873.56 ZM 309.22 809.17 L 308.72 816.18 L 314.11 813.47 C317.07,811.99 320.29,810.08 321.25,809.23 C323.44,807.31 323.53,801.92 321.44,797.89 C320.14,795.37 319.38,794.93 316.74,795.19 C312.33,795.62 309.86,800.21 309.22,809.17 ZM 323.79 778.27 C318.68,780.24 313.76,782.13 312.85,782.49 C308.51,784.19 310.85,780.56 318.57,773.64 C328.10,765.09 331.72,763.89 333.84,768.56 C335.70,772.63 333.86,774.40 323.79,778.27 ZM 477.17 817.35 C473.17,820.97 467.00,818.17 467.00,812.73 C467.00,809.80 470.22,807.00 473.57,807.00 C478.34,807.00 480.80,814.06 477.17,817.35 ZM 496.55 819.55 C493.69,822.41 492.27,822.58 489.22,820.44 C486.74,818.71 486.14,813.26 488.20,811.20 C490.26,809.14 495.71,809.74 497.44,812.22 C499.58,815.27 499.41,816.69 496.55,819.55 ZM 357.00 927.00 C357.00,927.55 357.45,928.00 358.00,928.00 C358.55,928.00 359.00,927.55 359.00,927.00 C359.00,926.45 358.55,926.00 358.00,926.00 C357.45,926.00 357.00,926.45 357.00,927.00 Z" fill="rgb(32,35,31)"/>
<path d="M 937.44 143.87 C943.18,139.20 953.23,132.00 953.98,132.00 C955.83,132.00 974.64,116.12 986.11,104.88 C1009.51,81.95 1022.41,65.40 1037.07,39.50 C1040.41,33.61 1038.01,36.39 1032.04,45.35 C1027.34,52.40 1022.02,59.61 1016.22,66.85 C1023.84,57.23 1030.82,47.37 1037.13,37.31 C1041.10,30.98 1045.66,22.83 1049.04,16.27 C1046.89,20.74 1044.43,25.59 1042.54,29.00 C1040.56,32.58 1039.89,34.26 1041.05,32.74 C1042.22,31.23 1043.58,30.24 1044.08,30.55 C1045.47,31.41 1044.25,55.60 1041.49,82.00 C1040.72,89.43 1039.58,101.35 1038.96,108.50 C1038.34,115.65 1037.67,122.85 1037.46,124.50 C1037.25,126.15 1036.60,131.10 1036.03,135.50 C1035.45,139.90 1034.54,147.92 1034.00,153.32 C1033.47,158.72 1032.83,163.47 1032.57,163.89 C1032.32,164.30 1031.41,170.01 1030.56,176.57 C1029.71,183.13 1028.13,193.68 1027.05,200.00 C1025.97,206.32 1024.61,214.43 1024.04,218.00 C1021.78,231.96 1019.00,247.00 1016.65,258.00 C1015.30,264.33 1012.60,276.92 1010.66,286.00 C1007.39,301.26 1000.81,327.01 994.30,350.00 C990.03,365.10 973.31,415.20 968.27,428.00 C967.73,429.38 966.36,433.20 965.22,436.50 C964.09,439.80 961.52,446.33 959.52,451.00 C957.51,455.67 955.72,460.17 955.52,461.00 C954.76,464.19 950.78,473.06 939.48,496.75 C937.57,500.74 936.36,504.00 936.79,504.00 C937.02,504.00 938.08,502.23 939.52,499.58 C933.25,512.06 927.22,523.56 923.00,530.92 C855.60,648.13 770.26,725.43 671.79,758.44 C640.83,768.81 607.04,776.84 578.50,780.60 C562.52,782.71 527.50,783.04 514.50,781.21 C491.64,777.99 474.05,773.41 439.00,761.56 C382.70,742.52 348.02,736.00 303.10,736.00 C253.98,736.00 207.70,750.78 161.68,781.18 C156.83,784.38 152.46,787.00 151.98,787.00 C151.50,787.00 151.94,785.31 152.98,783.25 C154.01,781.19 155.49,778.15 156.28,776.50 C166.20,755.61 174.92,744.18 184.15,739.98 C185.54,739.35 187.41,737.57 188.32,736.03 C190.24,732.78 196.82,730.72 220.38,726.00 C253.73,719.32 277.84,717.12 330.00,715.99 C371.59,715.10 391.40,713.73 417.47,709.93 C466.84,702.73 518.28,687.21 565.56,665.25 C653.62,624.34 736.58,555.14 801.22,468.66 C817.85,446.42 843.08,407.75 841.80,406.46 C841.56,406.22 836.39,411.98 830.32,419.26 C699.42,576.19 555.30,669.10 416.50,686.04 C385.27,689.86 342.39,688.45 321.75,682.93 L 318.00 681.92 L 318.01 658.71 C318.09,541.85 340.10,461.66 387.67,404.94 C394.00,397.39 401.38,389.83 397.11,395.27 C396.34,396.25 395.98,397.31 396.30,397.63 C396.62,397.95 395.36,400.44 393.49,403.15 C391.61,405.88 390.35,408.75 390.67,409.58 C390.98,410.40 390.53,412.97 389.65,415.29 C388.77,417.60 388.07,420.40 388.09,421.50 C388.11,422.60 387.84,426.57 387.49,430.31 C387.05,435.13 387.23,437.57 388.12,438.65 C389.38,440.17 390.66,446.21 391.68,455.48 C392.02,458.61 392.87,460.92 393.97,461.69 C394.93,462.36 396.30,465.01 397.02,467.56 C399.26,475.58 409.21,488.89 416.29,493.35 C417.83,494.31 419.48,496.14 419.96,497.39 C420.84,499.70 430.51,507.80 437.00,511.66 C444.68,516.24 456.71,522.29 461.47,523.97 C476.64,529.35 481.86,530.52 502.00,533.07 C511.53,534.28 540.93,533.46 542.45,531.95 C542.97,531.43 545.28,531.00 547.59,531.00 C549.89,531.00 553.96,530.37 556.64,529.60 C559.31,528.82 564.14,527.43 567.37,526.51 C570.59,525.58 578.08,522.39 584.00,519.41 C589.92,516.44 595.23,514.00 595.80,514.00 C596.37,514.00 596.98,513.64 597.17,513.19 C597.35,512.75 601.04,510.08 605.36,507.26 C611.85,503.02 626.06,489.19 630.81,482.50 C631.20,481.95 632.90,479.70 634.58,477.50 C637.89,473.18 644.44,458.58 646.69,450.50 C648.41,444.37 649.15,416.52 647.79,409.50 C645.97,400.08 643.08,392.05 638.79,384.47 C636.43,380.29 633.92,375.79 633.21,374.47 C631.04,370.41 610.50,350.41 603.81,345.84 C595.45,340.13 591.43,338.00 589.00,338.00 C587.90,338.00 587.00,337.55 587.00,337.00 C587.00,336.45 585.90,336.00 584.57,336.00 C583.23,336.00 580.86,335.47 579.32,334.82 C577.77,334.17 575.83,333.55 575.00,333.44 C569.67,332.73 560.34,330.70 559.50,330.07 C557.83,328.80 549.84,327.05 543.50,326.56 C540.20,326.31 532.33,325.70 526.00,325.21 C519.67,324.72 511.80,324.45 508.50,324.60 C496.29,325.18 495.20,325.14 494.54,324.06 C493.89,323.00 501.89,318.81 521.44,309.98 C564.94,290.33 617.15,272.63 685.39,254.41 C730.15,242.46 749.76,236.44 779.52,225.50 C859.24,196.17 926.40,156.46 976.81,109.40 C964.96,120.61 952.49,131.17 940.00,140.48 C936.42,143.14 933.05,145.76 932.50,146.28 C931.37,147.37 935.79,145.20 937.44,143.87 ZM 952.81 472.37 C952.07,473.92 951.32,475.49 950.56,477.08 C950.88,476.29 951.04,475.77 951.01,475.61 C950.91,475.12 951.24,474.45 951.74,474.11 C951.91,474.00 952.28,473.39 952.81,472.37 ZM 966.03 442.83 C965.16,444.93 964.27,447.02 963.39,449.10 C962.38,451.47 961.22,454.10 959.95,456.93 C961.89,452.54 963.98,447.68 966.03,442.83 Z" fill="rgb(55,148,11)"/>
<path d="M 509.77 315.35 C498.67,320.57 494.04,323.25 494.54,324.06 C495.20,325.14 496.29,325.18 508.50,324.60 C511.80,324.45 519.67,324.72 526.00,325.21 C532.33,325.70 540.20,326.31 543.50,326.56 C549.84,327.05 557.83,328.80 559.50,330.07 C560.34,330.70 569.67,332.73 575.00,333.44 C575.83,333.55 577.77,334.17 579.32,334.82 C580.86,335.47 583.23,336.00 584.57,336.00 C585.90,336.00 587.00,336.45 587.00,337.00 C587.00,337.55 587.90,338.00 589.00,338.00 C591.43,338.00 595.45,340.13 603.81,345.84 C610.50,350.41 631.04,370.41 633.21,374.47 C633.92,375.79 636.43,380.29 638.79,384.47 C643.08,392.05 645.97,400.08 647.79,409.50 C649.15,416.52 648.41,444.37 646.69,450.50 C644.44,458.58 637.89,473.18 634.58,477.50 C632.90,479.70 631.20,481.95 630.81,482.50 C626.06,489.19 611.85,503.02 605.36,507.26 C601.04,510.08 597.35,512.75 597.17,513.19 C596.98,513.64 596.37,514.00 595.80,514.00 C595.23,514.00 589.92,516.44 584.00,519.41 C578.08,522.39 570.59,525.58 567.37,526.51 C564.14,527.43 559.31,528.82 556.64,529.60 C553.96,530.37 549.89,531.00 547.59,531.00 C545.28,531.00 542.97,531.43 542.45,531.95 C540.93,533.46 511.53,534.28 502.00,533.07 C481.86,530.52 476.64,529.35 461.47,523.97 C456.71,522.29 444.68,516.24 437.00,511.66 C430.51,507.80 420.84,499.70 419.96,497.39 C419.48,496.14 417.83,494.31 416.29,493.35 C409.21,488.89 399.26,475.58 397.02,467.56 C396.30,465.01 394.93,462.36 393.97,461.69 C392.87,460.92 392.02,458.61 391.68,455.48 C390.66,446.21 389.38,440.17 388.12,438.65 C387.23,437.57 387.05,435.13 387.49,430.31 C387.84,426.57 388.11,422.60 388.09,421.50 C388.07,420.40 388.77,417.60 389.65,415.29 C390.53,412.97 390.98,410.40 390.67,409.58 C390.35,408.75 391.61,405.88 393.49,403.15 C395.36,400.44 396.62,397.95 396.30,397.63 C395.98,397.31 396.34,396.25 397.11,395.27 C401.38,389.83 394.00,397.39 387.67,404.94 C364.44,432.64 347.30,465.93 335.84,506.36 C342.72,482.01 351.62,460.35 362.59,441.11 C374.82,419.68 385.73,405.49 405.00,385.98 C432.80,357.84 464.86,336.22 509.77,315.35 ZM 0.00 0.00 L 0.11 473.25 C0.19,854.67 0.39,936.10 1.39,936.11 C1.45,936.11 1.51,935.81 1.58,935.26 C6.41,895.37 22.00,856.61 46.32,824.01 C55.39,811.85 76.69,790.61 89.29,781.16 C121.44,757.05 157.08,740.79 200.72,730.31 C192.63,732.39 189.54,733.97 188.32,736.03 C187.41,737.57 185.54,739.35 184.15,739.98 C174.92,744.18 166.20,755.61 156.28,776.50 C155.49,778.15 154.01,781.19 152.98,783.25 C151.94,785.31 151.50,787.00 151.98,787.00 C152.46,787.00 156.83,784.38 161.68,781.18 C185.41,765.51 209.20,753.99 233.42,746.50 C219.22,750.96 205.08,756.90 190.45,764.42 C156.38,781.92 123.60,807.06 90.87,840.77 C59.33,873.27 27.55,915.18 5.50,953.37 L 0.00 962.89 ZM 335.95 924.39 C333.03,924.51 328.02,923.60 324.52,922.29 C325.31,922.34 326.23,922.13 327.58,921.71 C329.78,921.04 331.41,920.98 331.82,921.56 C332.20,922.08 333.57,923.10 334.88,923.84 C335.30,924.07 335.65,924.26 335.95,924.39 ZM 571.34 941.75 C571.93,942.73 569.40,945.07 568.61,944.27 C568.27,943.94 568.00,943.07 568.00,942.33 C568.00,940.92 570.56,940.48 571.34,941.75 ZM 413.17 942.97 C412.30,942.69 411.18,942.44 409.98,942.29 C407.52,941.96 405.27,941.43 405.00,941.10 C404.25,940.20 402.08,939.44 399.50,939.02 C405.62,939.04 407.00,939.30 407.00,940.07 C407.00,940.58 406.44,941.05 405.75,941.12 C405.06,941.18 406.74,941.61 409.48,942.07 C410.89,942.30 412.20,942.63 413.17,942.97 ZM 609.00 941.00 C609.00,941.55 607.76,941.97 606.25,941.93 C603.81,941.87 603.73,941.76 605.50,941.00 C608.23,939.83 609.00,939.83 609.00,941.00 ZM 580.37 942.21 C579.69,943.32 577.00,943.20 577.00,942.06 C577.00,941.55 577.87,941.19 578.93,941.27 C579.99,941.35 580.64,941.77 580.37,942.21 ZM 599.00 940.00 C599.00,940.55 598.55,941.00 598.00,941.00 C597.45,941.00 597.00,940.55 597.00,940.00 C597.00,939.45 597.45,939.00 598.00,939.00 C598.55,939.00 599.00,939.45 599.00,940.00 ZM 320.34 736.35 C334.56,736.96 348.10,738.37 362.15,740.80 C351.86,739.08 341.63,737.88 330.60,737.01 C327.13,736.74 323.71,736.52 320.34,736.35 ZM 210.44 728.05 C225.84,724.61 239.72,722.14 254.78,720.34 C243.35,721.74 232.47,723.58 220.38,726.00 C216.66,726.75 213.37,727.43 210.44,728.05 ZM 588.44 283.61 C616.84,273.74 648.20,264.34 685.39,254.41 C648.85,264.17 616.91,273.77 588.44,283.61 ZM 390.24 938.96 C388.38,938.98 388.00,938.59 388.00,937.51 C388.00,936.83 387.83,936.42 387.45,936.24 C387.83,936.41 388.00,936.80 388.00,937.44 C388.00,938.36 388.45,938.79 390.24,938.96 ZM 338.60 923.27 C339.08,922.82 339.49,923.07 340.27,924.06 C339.53,923.12 339.07,922.87 338.60,923.27 Z" fill="rgb(97,173,59)"/>
<path d="M -0.00 977.95 L -0.00 962.89 L 5.50 953.37 C27.55,915.18 59.33,873.27 90.87,840.77 C123.60,807.06 156.38,781.92 190.45,764.42 C236.31,740.85 277.34,732.83 330.60,737.01 C365.62,739.76 392.61,745.87 439.00,761.56 C474.05,773.41 491.64,777.99 514.50,781.21 C527.50,783.04 562.52,782.71 578.50,780.60 C607.04,776.84 640.83,768.81 671.79,758.44 C770.26,725.43 855.60,648.13 923.00,530.92 C933.29,513.00 954.29,470.48 963.39,449.10 C1013.76,330.77 1043.25,194.99 1054.43,30.00 C1055.55,13.44 1055.77,84.67 1055.87,501.75 L 1056.00 993.00 L 562.25 992.96 C124.95,992.92 68.81,992.75 71.24,991.43 C77.04,988.29 78.81,979.72 74.55,975.45 C70.32,971.23 64.00,973.08 65.33,978.16 C66.79,983.73 60.89,985.98 56.45,981.55 C51.78,976.87 53.71,960.00 58.92,960.00 C60.04,960.00 74.04,966.53 90.03,974.50 C106.03,982.47 120.01,989.00 121.11,989.00 C126.59,989.00 132.19,983.55 137.45,973.09 C146.27,955.58 146.09,943.04 136.87,934.30 C132.23,929.89 127.15,928.00 119.97,928.00 C112.99,928.00 110.98,928.83 105.75,933.82 L 102.00 937.41 L 101.98 933.45 C101.93,920.27 86.42,912.54 74.81,919.91 C69.47,923.29 65.67,928.48 59.61,940.69 C53.52,952.95 50.00,964.62 50.00,972.58 C50.00,982.34 52.75,987.25 60.50,991.34 C63.29,992.81 61.31,992.92 31.75,992.96 L 0.00 993.00 L -0.00 977.95 ZM 502.56 955.45 C504.45,953.94 504.44,953.91 502.25,954.52 C499.72,955.21 499.13,953.55 501.58,952.61 C504.12,951.63 505.00,951.89 505.00,953.62 C505.00,954.81 505.67,955.11 507.52,954.75 C508.91,954.49 510.29,954.66 510.58,955.13 C511.84,957.18 512.49,955.69 512.16,951.50 C511.96,948.99 512.23,947.00 512.78,947.00 C514.45,947.00 516.52,950.21 516.17,952.28 C515.88,953.98 516.22,954.16 518.60,953.56 C520.13,953.18 521.85,952.21 522.44,951.42 C523.28,950.26 524.49,950.15 528.32,950.87 C532.71,951.69 533.36,951.55 535.55,949.36 C537.30,947.61 538.62,947.12 540.37,947.56 C541.70,947.89 543.08,947.68 543.45,947.08 C543.82,946.49 545.04,946.00 546.17,946.00 C547.85,946.00 548.11,946.44 547.59,948.50 C547.01,950.82 547.22,951.00 550.59,951.00 C553.32,951.00 554.08,950.65 553.67,949.57 C552.82,947.37 555.59,945.68 558.73,946.47 C560.25,946.85 561.15,946.81 560.72,946.38 C560.29,945.95 560.96,945.03 562.22,944.34 C564.32,943.17 564.12,943.07 559.75,943.04 C557.14,943.02 555.00,943.45 555.00,944.00 C555.00,944.55 553.88,945.00 552.50,945.00 C551.12,945.00 550.00,944.60 550.00,944.12 C550.00,943.63 545.59,943.38 540.19,943.56 C534.79,943.74 527.41,943.38 523.77,942.75 C517.95,941.76 516.68,941.84 513.07,943.47 C509.70,944.99 508.52,945.10 506.39,944.13 C504.96,943.48 502.37,943.21 500.64,943.54 C498.90,943.87 496.29,943.68 494.84,943.13 C493.39,942.58 491.90,942.44 491.52,942.81 C491.14,943.19 489.63,943.59 488.17,943.71 C486.70,943.82 483.81,944.06 481.75,944.24 C479.69,944.42 478.00,944.21 478.00,943.77 C478.00,943.32 476.87,943.25 475.48,943.59 C474.09,943.94 471.73,943.78 470.23,943.24 C468.73,942.69 465.02,941.70 462.00,941.04 C458.98,940.37 454.54,939.11 452.14,938.23 C448.10,936.76 447.71,936.77 446.84,938.32 C445.81,940.17 443.00,940.62 443.00,938.95 C443.00,938.31 440.71,937.96 437.25,938.06 C434.09,938.16 430.22,937.73 428.67,937.11 C427.11,936.49 425.46,936.22 425.00,936.50 C423.48,937.44 419.18,935.15 418.51,933.04 C418.15,931.90 417.44,931.23 416.93,931.54 C416.42,931.86 416.00,931.66 416.00,931.09 C416.00,930.53 413.86,930.04 411.25,930.02 C404.05,929.95 398.02,929.35 397.31,928.64 C396.95,928.29 395.58,928.00 394.26,928.00 C392.94,928.00 391.24,927.38 390.48,926.62 C389.72,925.86 386.52,924.92 383.37,924.53 C380.22,924.13 376.71,923.21 375.57,922.48 C372.08,920.24 360.94,916.89 359.01,917.50 C358.00,917.82 356.93,918.73 356.62,919.54 C356.32,920.34 355.61,921.00 355.06,921.00 C354.51,921.00 354.30,920.39 354.58,919.65 C355.32,917.73 342.14,913.74 334.00,913.42 C330.42,913.28 325.97,912.84 324.09,912.43 C321.84,911.94 320.90,912.04 321.33,912.72 C321.90,913.65 308.46,915.22 302.50,914.93 C299.01,914.75 297.57,914.83 295.00,915.33 C284.86,917.30 282.52,917.95 282.21,918.86 C282.03,919.42 281.22,919.64 280.44,919.34 C279.65,919.03 279.00,919.26 279.00,919.85 C279.00,920.43 277.09,921.77 274.75,922.83 C269.58,925.18 255.50,935.81 255.50,937.37 C255.50,937.99 254.71,939.29 253.75,940.25 C251.44,942.56 251.52,945.00 253.92,945.00 C254.97,945.00 256.50,945.26 257.32,945.57 C258.22,945.91 260.30,944.60 262.65,942.19 C264.77,940.01 267.99,937.48 269.80,936.57 C271.62,935.65 273.98,934.02 275.05,932.95 C276.12,931.88 277.90,931.00 279.00,931.00 C280.10,931.00 281.00,930.50 281.00,929.89 C281.00,929.28 281.73,929.07 282.63,929.41 C283.52,929.75 284.76,929.64 285.38,929.15 C285.99,928.66 288.83,927.50 291.69,926.57 C294.54,925.64 297.02,924.44 297.20,923.89 C297.39,923.34 299.89,922.84 302.77,922.78 C305.65,922.71 308.00,922.33 308.00,921.94 C308.00,920.39 311.31,920.04 312.38,921.47 C313.24,922.63 314.21,922.77 316.50,922.08 C318.15,921.58 318.85,921.13 318.05,921.09 C316.99,921.02 316.90,920.70 317.70,919.90 C318.51,919.09 319.58,919.36 321.65,920.86 C325.26,923.48 337.04,925.52 338.22,923.73 C338.85,922.79 339.33,922.87 340.27,924.06 C342.10,926.38 344.35,926.94 348.32,926.04 C350.85,925.47 352.01,925.60 352.35,926.48 C352.86,927.81 358.35,929.39 361.32,929.06 C362.32,928.94 363.95,929.78 364.94,930.93 C366.15,932.33 367.94,933.00 370.43,933.00 C372.47,933.00 375.10,933.52 376.27,934.15 C377.45,934.78 379.67,935.26 381.21,935.21 C382.74,935.17 384.00,935.51 384.00,935.97 C384.00,936.43 384.90,936.58 386.00,936.29 C387.44,935.91 388.00,936.26 388.00,937.51 C388.00,939.01 388.73,939.18 393.13,938.76 C397.72,938.32 403.66,939.49 405.00,941.10 C405.27,941.43 407.52,941.96 409.98,942.29 C412.44,942.61 414.61,943.32 414.79,943.88 C414.98,944.43 415.78,944.64 416.56,944.34 C417.37,944.03 418.01,944.38 418.02,945.14 C418.03,946.11 418.24,946.17 418.77,945.34 C419.27,944.55 420.85,944.42 423.70,944.94 C426.11,945.39 428.29,945.31 428.83,944.77 C429.42,944.18 430.88,944.40 432.73,945.36 C435.74,946.92 439.31,946.63 441.94,944.61 C443.03,943.77 443.20,943.80 442.66,944.71 C442.22,945.43 442.97,946.59 444.55,947.62 C446.99,949.23 447.34,949.23 449.99,947.67 C453.15,945.80 456.00,945.48 456.00,947.00 C456.00,947.55 455.10,948.00 454.00,948.00 C452.90,948.00 452.00,948.34 452.00,948.75 C452.00,949.16 454.81,949.59 458.25,949.69 C461.69,949.80 466.44,950.19 468.82,950.55 C472.50,951.12 473.51,950.88 475.69,948.86 L 478.26 946.50 L 477.80 949.75 C477.55,951.54 477.72,953.00 478.17,953.00 C478.63,953.00 479.00,952.54 479.00,951.99 C479.00,950.74 484.89,951.66 486.74,953.20 C487.73,954.02 488.63,953.76 490.34,952.15 C493.04,949.62 494.00,949.45 494.00,951.50 C494.00,953.85 495.32,953.20 497.50,949.78 C498.60,948.05 500.06,946.46 500.75,946.24 C502.86,945.56 502.14,948.24 499.47,951.03 C495.43,955.25 498.08,959.03 502.56,955.45 ZM 571.34 941.75 C570.56,940.48 568.00,940.92 568.00,942.33 C568.00,943.07 568.27,943.94 568.61,944.27 C569.40,945.07 571.93,942.73 571.34,941.75 ZM 580.37 942.21 C580.64,941.77 579.99,941.35 578.93,941.27 C577.87,941.19 577.00,941.55 577.00,942.06 C577.00,943.20 579.69,943.32 580.37,942.21 ZM 609.00 941.00 C609.00,939.83 608.23,939.83 605.50,941.00 C603.73,941.76 603.81,941.87 606.25,941.93 C607.76,941.97 609.00,941.55 609.00,941.00 ZM 599.00 940.00 C599.00,939.45 598.55,939.00 598.00,939.00 C597.45,939.00 597.00,939.45 597.00,940.00 C597.00,940.55 597.45,941.00 598.00,941.00 C598.55,941.00 599.00,940.55 599.00,940.00 ZM 159.57 928.53 C173.97,924.23 181.18,907.45 174.63,893.50 C171.86,887.60 162.82,878.73 156.77,875.98 C150.90,873.32 140.28,873.31 135.08,875.96 C130.13,878.48 125.49,883.15 122.74,888.37 C119.75,894.04 119.79,903.84 122.83,909.72 C127.37,918.51 136.68,926.14 145.88,928.62 C152.03,930.28 153.75,930.26 159.57,928.53 ZM 553.44 897.58 C565.41,892.57 571.88,877.77 570.59,858.40 C569.48,841.86 565.52,833.94 557.61,832.45 C552.72,831.54 546.37,834.00 542.01,838.49 L 538.66 841.95 L 536.89 838.01 C535.69,835.33 534.29,833.86 532.50,833.41 C528.79,832.48 522.62,833.48 518.30,835.72 C513.91,838.00 512.59,840.39 516.23,839.48 C517.69,839.11 519.07,839.39 519.70,840.19 C520.32,840.96 521.04,850.80 521.44,864.00 C521.81,876.38 522.33,887.24 522.59,888.14 C523.28,890.52 528.46,892.35 532.61,891.68 C539.44,890.57 539.37,890.82 538.70,868.27 L 538.09 848.04 L 540.64 845.02 C543.86,841.19 548.24,840.91 550.51,844.38 C552.72,847.75 554.33,863.78 553.59,875.00 C552.81,886.79 550.72,893.51 547.16,895.74 C545.70,896.65 544.34,897.50 544.15,897.63 C543.96,897.76 544.12,898.38 544.51,899.01 C545.26,900.24 548.26,899.76 553.44,897.58 ZM 406.63 891.19 C414.23,887.31 418.13,881.53 425.49,863.26 C429.20,854.04 432.55,846.15 432.94,845.73 C433.33,845.30 435.25,845.63 437.21,846.45 C440.65,847.88 440.81,847.85 441.36,845.74 C441.68,844.52 441.61,843.25 441.22,842.89 C440.09,841.89 412.86,831.00 411.47,831.00 C410.79,831.00 410.00,831.90 409.71,833.00 C409.29,834.59 410.07,835.38 413.60,836.94 L 418.01 838.89 L 416.10 843.75 C413.13,851.27 407.67,864.45 407.32,864.91 C406.54,865.95 398.62,862.61 395.61,859.96 C390.75,855.70 389.66,852.29 390.24,843.23 C391.08,830.30 397.11,816.23 405.91,806.73 C412.82,799.26 419.07,796.00 426.44,796.00 C431.22,796.00 432.17,796.33 433.59,798.50 C434.97,800.61 435.06,801.72 434.12,805.45 C432.39,812.33 432.69,815.67 435.22,817.44 C438.58,819.79 440.85,819.35 444.60,815.60 C451.73,808.47 447.28,799.03 433.68,792.45 C414.55,783.19 392.22,789.93 381.19,808.29 C375.70,817.42 373.04,826.34 373.06,835.50 C373.09,844.35 374.43,849.12 378.55,855.07 C382.03,860.10 391.48,866.44 398.82,868.67 C401.94,869.62 404.63,870.47 404.78,870.56 C405.40,870.93 402.72,876.75 400.31,880.25 C395.30,887.52 387.46,889.89 379.47,886.55 C376.05,885.12 374.70,883.12 373.55,877.75 C372.88,874.60 370.58,874.16 367.83,876.65 C365.28,878.96 365.55,881.27 368.74,884.46 C377.33,893.06 396.36,896.44 406.63,891.19 ZM 200.47 889.90 C205.95,885.08 205.38,883.24 194.37,870.00 C178.85,851.33 179.72,852.75 180.94,848.21 C182.58,842.13 185.51,839.00 189.57,839.00 C193.61,839.00 193.75,838.40 190.75,833.99 C187.80,829.66 185.88,828.56 182.67,829.37 C179.18,830.24 177.00,834.70 176.72,841.50 C176.60,844.51 176.27,846.85 176.00,846.69 C175.73,846.53 173.81,845.62 171.75,844.68 C168.46,843.18 167.60,843.14 164.70,844.35 C160.66,846.04 156.57,850.75 154.99,855.54 C153.53,859.96 154.33,861.05 156.80,858.00 C159.17,855.07 160.24,855.69 167.06,864.00 C190.38,892.38 190.96,893.00 193.99,893.00 C195.85,893.00 198.23,891.86 200.47,889.90 ZM 113.60 882.28 L 114.50 873.56 L 122.25 871.23 C127.27,869.72 130.00,868.39 130.00,867.45 C130.00,866.28 128.04,866.00 119.83,866.00 C105.07,866.00 104.39,866.88 108.08,881.30 C111.36,894.18 112.35,894.35 113.60,882.28 ZM 499.80 888.60 C501.29,887.83 503.40,886.20 504.50,884.98 L 506.50 882.75 L 503.35 883.43 C501.61,883.81 499.93,883.70 499.61,883.18 C499.29,882.67 500.32,872.40 501.90,860.37 C505.21,835.01 505.05,833.90 497.78,831.94 C492.91,830.63 487.86,831.75 483.64,835.07 C480.46,837.57 480.10,839.55 483.11,837.94 C487.26,835.72 487.49,837.84 485.13,856.15 C482.78,874.34 482.82,874.23 476.61,877.62 C472.94,879.62 469.00,878.17 469.00,874.81 C469.00,873.58 470.15,863.85 471.55,853.19 C474.47,831.05 474.29,830.07 467.00,827.88 C462.16,826.43 456.51,827.80 452.26,831.45 C449.20,834.09 449.64,835.80 452.93,834.04 C456.28,832.25 456.56,834.98 454.57,849.95 C453.58,857.40 452.55,866.89 452.27,871.04 C451.80,878.12 451.93,878.76 454.46,881.77 C459.63,887.92 467.90,887.88 477.75,881.66 L 482.00 878.97 L 482.00 881.80 C482.00,886.92 485.96,889.92 492.80,889.97 C495.16,889.99 498.32,889.37 499.80,888.60 ZM 604.90 885.55 C606.44,884.75 609.16,882.44 610.95,880.40 C613.50,877.50 614.39,877.01 615.08,878.10 C615.57,878.87 615.98,879.75 615.98,880.06 C615.99,880.38 617.61,881.40 619.57,882.33 C624.42,884.64 629.74,883.20 633.91,878.45 C638.08,873.70 638.14,871.65 634.03,874.21 C632.96,874.88 631.75,875.09 631.34,874.68 C630.93,874.27 629.36,865.82 627.85,855.90 C626.11,844.50 624.43,836.70 623.27,834.72 C619.25,827.83 608.96,825.36 597.37,828.50 C584.92,831.87 579.09,841.18 585.45,847.55 C589.81,851.90 596.00,849.70 596.00,843.79 C596.00,841.47 595.40,840.69 593.00,839.85 C589.88,838.76 589.54,838.24 590.77,836.40 C592.11,834.39 595.82,833.00 599.86,833.00 C604.68,833.00 608.00,836.47 608.00,841.50 C608.00,845.91 605.14,849.19 597.64,853.39 C590.04,857.63 584.35,863.62 583.48,868.28 C582.26,874.77 586.37,883.99 591.39,886.02 C594.75,887.38 601.85,887.13 604.90,885.55 ZM 265.32 853.93 C270.09,852.60 276.48,846.92 279.24,841.57 C287.62,825.28 274.95,786.95 257.30,775.24 C252.12,771.79 251.02,771.47 243.31,771.15 C235.85,770.83 234.35,771.08 229.45,773.48 C224.60,775.85 219.00,781.62 219.00,784.23 C219.00,785.71 220.93,784.98 223.33,782.58 C229.38,776.53 238.69,777.01 246.15,783.75 C250.10,787.33 256.01,795.08 255.99,796.68 C255.99,797.13 253.79,797.54 251.09,797.60 C240.86,797.80 231.91,806.85 230.46,818.46 C229.78,823.92 231.85,834.88 234.55,840.10 C237.10,845.03 243.22,851.18 247.50,853.13 C251.99,855.18 259.59,855.52 265.32,853.93 ZM 324.65 846.51 C332.14,844.29 340.80,837.46 338.74,835.41 C338.46,835.13 336.54,836.05 334.48,837.45 C326.57,842.82 316.56,839.56 311.75,830.07 C310.24,827.08 309.00,823.84 309.00,822.86 C309.00,821.62 312.26,819.31 319.71,815.29 C336.94,805.98 340.32,801.10 334.43,794.10 C329.47,788.21 317.61,787.51 307.41,792.50 C285.31,803.31 285.71,838.34 308.02,846.04 C314.70,848.35 318.13,848.45 324.65,846.51 ZM 496.55 819.55 C499.41,816.69 499.58,815.27 497.44,812.22 C495.71,809.74 490.26,809.14 488.20,811.20 C486.14,813.26 486.74,818.71 489.22,820.44 C492.27,822.58 493.69,822.41 496.55,819.55 ZM 477.17 817.35 C480.80,814.06 478.34,807.00 473.57,807.00 C470.22,807.00 467.00,809.80 467.00,812.73 C467.00,818.17 473.17,820.97 477.17,817.35 ZM 323.79 778.27 C333.86,774.40 335.70,772.63 333.84,768.56 C331.72,763.89 328.10,765.09 318.57,773.64 C310.85,780.56 308.51,784.19 312.85,782.49 C313.76,782.13 318.68,780.24 323.79,778.27 ZM 97.50 957.20 C63.77,940.12 63.56,939.95 68.36,934.37 C70.54,931.84 71.48,931.51 76.33,931.55 C80.62,931.59 82.87,932.25 86.64,934.58 C93.46,938.79 96.32,943.34 95.53,948.66 C94.75,953.83 96.03,954.80 98.76,951.11 C101.61,947.25 106.83,945.00 112.93,945.00 C119.60,945.00 124.50,947.11 129.74,952.24 C134.45,956.86 136.53,961.73 135.52,965.80 C134.78,968.79 131.25,973.03 129.58,972.95 C128.98,972.92 114.55,965.84 97.50,957.20 ZM 0.11 473.25 L 0.00 0.00 L 528.00 0.00 C1055.33,0.00 1056.00,0.00 1056.00,2.00 C1056.00,3.10 1055.55,4.00 1055.00,4.00 C1054.45,4.00 1054.00,4.45 1054.00,5.00 C1054.00,7.38 1044.54,25.50 1037.13,37.31 C987.68,116.15 897.30,182.17 779.52,225.50 C749.76,236.44 730.15,242.46 685.39,254.41 C611.89,274.03 561.21,291.58 511.00,314.78 C465.44,335.83 433.05,357.59 405.00,385.98 C385.73,405.49 374.82,419.68 362.59,441.11 C332.58,493.73 318.07,564.53 318.01,658.71 L 318.00 681.92 L 321.75 682.93 C342.39,688.45 385.27,689.86 416.50,686.04 C555.30,669.10 699.42,576.19 830.32,419.26 C836.39,411.98 841.56,406.22 841.80,406.46 C843.08,407.75 817.85,446.42 801.22,468.66 C736.58,555.14 653.62,624.34 565.56,665.25 C518.28,687.21 466.84,702.73 417.47,709.93 C391.40,713.72 371.59,715.10 330.00,716.00 C270.48,717.28 242.57,720.35 201.50,730.12 C157.51,740.59 121.63,756.91 89.29,781.16 C76.69,790.61 55.39,811.85 46.32,824.01 C22.00,856.61 6.41,895.37 1.58,935.26 C0.41,944.87 0.20,877.80 0.11,473.25 ZM 357.00 927.00 C357.00,926.45 357.45,926.00 358.00,926.00 C358.55,926.00 359.00,926.45 359.00,927.00 C359.00,927.55 358.55,928.00 358.00,928.00 C357.45,928.00 357.00,927.55 357.00,927.00 ZM 157.24 917.02 C145.25,911.58 129.00,895.85 129.00,889.69 C129.00,885.20 136.54,883.68 142.79,886.93 C152.73,892.09 169.00,907.98 169.00,912.54 C169.00,914.53 164.96,919.00 163.18,918.98 C162.25,918.97 159.58,918.09 157.24,917.02 ZM 603.29 877.20 C601.27,875.92 599.00,869.33 599.00,864.78 C599.01,862.29 599.83,859.15 600.97,857.28 C602.97,853.99 607.41,852.01 609.06,853.66 C610.26,854.86 612.00,864.19 612.00,869.45 C612.00,875.68 607.38,879.80 603.29,877.20 ZM 258.60 846.90 C255.07,844.12 251.59,837.07 248.51,826.45 C244.17,811.45 245.62,803.00 252.55,803.00 C257.89,803.00 262.04,810.60 266.18,827.99 C268.61,838.21 268.21,844.60 264.99,847.21 C262.20,849.47 261.84,849.45 258.60,846.90 ZM 309.22 809.17 C309.86,800.21 312.33,795.62 316.74,795.19 C319.38,794.93 320.14,795.37 321.44,797.89 C323.53,801.92 323.44,807.31 321.25,809.23 C320.29,810.08 317.07,811.99 314.11,813.47 L 308.72 816.18 L 309.22 809.17 Z" fill="rgb(254,254,254)"/>
</g>
</svg>